<svg width="100%" height="100%" viewBox="0 0 757 398" version="1.1" xmlns="http://www.w3.org/2000/svg" xmlns:xlink="http://www.w3.org/1999/xlink" xml:space="preserve" xmlns:serif="http://www.serif.com/" style="fill-rule:evenodd;clip-rule:evenodd;stroke-linejoin:round;stroke-miterlimit:2;"><g><path d="M0,35.586l396.533,163.505l-396.533,162.405l0,-129.155l117.064,-34.349l-117.064,-37.923l0,-124.483Z" style="fill:hsl(150,95%,40%);fill-rule:nonzero;"/><path d="M756.609,397.082l-270.4,0c-33.526,0 -60.914,-10.167 -82.165,-30.502c-21.251,-20.335 -31.876,-46.716 -31.876,-79.142c-0,-38.472 17.678,-68.058 53.036,-88.759c-19.053,-12.641 -32.655,-26.198 -40.808,-40.671c-8.152,-14.472 -12.228,-32.334 -12.228,-53.585c-0,-33.708 10.625,-59.539 31.876,-77.493c21.251,-17.953 51.845,-26.93 91.783,-26.93l260.782,0l0,111.568l-244.02,-0c-12.091,-0 -20.106,0.962 -24.045,2.885c-3.938,1.924 -5.908,5.817 -5.908,11.679c0,10.992 9.343,16.488 28.03,16.488l245.943,-0l0,111.568l-244.02,-0c-11.908,-0 -19.877,1.007 -23.907,3.022c-4.031,2.016 -6.046,5.954 -6.046,11.817c0,10.992 9.985,16.487 29.953,16.487l244.02,0l0,111.568Z" style="fill:hsl(330, 65%, 55%);fill-rule:nonzero;"/></g></svg>