<?xml version="1.0" encoding="UTF-8" standalone="no"?><!DOCTYPE svg PUBLIC "-//W3C//DTD SVG 1.1//EN" "http://www.w3.org/Graphics/SVG/1.1/DTD/svg11.dtd"><svg width="100%" height="100%" viewBox="0 0 1042 1042" version="1.1" xmlns="http://www.w3.org/2000/svg" xmlns:xlink="http://www.w3.org/1999/xlink" xml:space="preserve" xmlns:serif="http://www.serif.com/" style="fill-rule:evenodd;clip-rule:evenodd;stroke-linecap:round;stroke-linejoin:round;stroke-miterlimit:1.5;"><rect id="tofu" x="0" y="0" width="1041.67" height="1041.67" style="fill:url(#_Linear1);"/><clipPath id="_clip2"><rect id="tofu1" serif:id="tofu" x="0" y="0" width="1041.67" height="1041.67"/></clipPath><g clip-path="url(#_clip2)"><g><ellipse cx="520.833" cy="682.001" rx="568.75" ry="239.583" style="fill:#fffcf7;stroke:#000;stroke-width:4.33px;"/><ellipse cx="520.833" cy="665.334" rx="483.333" ry="189.438" style="fill:#ededed;stroke:#000;stroke-width:3.54px;"/><g id="tofu2" serif:id="tofu"><path id="top" d="M740.151,277.736c1.428,9.884 7.5,11.934 16.824,8.496l41.485,121.15l-239.854,82.132l-45.854,-133.912l74.194,-25.406c18.165,9.974 30.108,5.04 36.756,-12.586l116.449,-39.874Z" style="fill:#fffcf7;"/><clipPath id="_clip3"><path d="M740.151,277.736c1.428,9.884 7.5,11.934 16.824,8.496l41.485,121.15l-239.854,82.132l-45.854,-133.912l74.194,-25.406c18.165,9.974 30.108,5.04 36.756,-12.586l116.449,-39.874Z"/></clipPath><g clip-path="url(#_clip3)"><g id="shadows"><path d="M583.954,382.536c4.483,-3.459 11.947,-8.979 14.046,-7.415c1.723,1.284 8.268,-0.055 9.758,-1.967c5.308,-6.811 11.244,0.851 13.259,3.462c1.13,1.465 0.815,4.313 -0.483,7.009c-0.782,1.624 -3.606,-0.177 -5,1c-1.173,0.991 -0.842,5.075 -2.317,5.31c-1.692,0.27 -3.542,-0.09 -5.459,-1.382c-1.377,-0.927 -2.806,1.565 -4.265,2.433c-2.807,1.671 -5.72,3.567 -8.569,5.766c-14.402,11.113 -21.744,25.772 -26.094,20.135c-4.35,-5.636 0.722,-23.238 15.124,-34.351Z" style="fill-opacity:0.15;stroke:#000;stroke-opacity:0.22;stroke-width:4.17px;"/><path d="M693.305,320.6c1.394,-1.075 3.795,-2.688 5.509,-0.826c1.407,1.527 4.679,2.713 4.888,1.79c0.746,-3.291 6.672,4.379 8.687,6.991c1.13,1.464 1.9,3.475 2.061,5.045c0.097,0.946 -2.107,-1.334 -2.507,-0.924c-0.336,0.346 1.213,3.489 0.453,3.173c-0.871,-0.364 -2.042,-1.247 -3.562,-2.846c-1.091,-1.148 -1.073,0.227 -1.612,0.386c-1.038,0.306 -2.061,0.743 -2.947,1.427c-4.478,3.456 -3.764,11.898 -8.114,6.261c-4.35,-5.636 -7.334,-17.021 -2.856,-20.477Z" style="fill-opacity:0.15;stroke:#000;stroke-opacity:0.22;stroke-width:4.17px;"/><path d="M603.582,452.735c-1.49,0.938 -4.033,2.316 -5.563,0.299c-1.255,-1.654 -4.399,-3.145 -4.695,-2.246c-1.056,3.205 -6.226,-4.993 -7.984,-7.784c-0.986,-1.566 -1.561,-3.64 -1.573,-5.218c-0.006,-0.951 1.972,1.527 2.408,1.157c0.368,-0.312 -0.875,-3.589 -0.149,-3.201c0.832,0.444 1.914,1.435 3.275,3.171c0.978,1.247 1.09,-0.124 1.642,-0.231c1.062,-0.206 2.122,-0.544 3.069,-1.141c4.786,-3.014 0.212,-0.502 4.007,5.523c3.795,6.024 10.349,6.656 5.563,9.671Z" style="fill-opacity:0.15;stroke:#000;stroke-opacity:0.22;stroke-width:4.17px;"/><path d="M740.79,382.104c-2.388,1.442 -4.838,-6.545 -7.289,-5.599c-2.458,0.949 -4.917,10.83 -7.314,11.328c-2.127,0.443 0.85,-0.968 -1.135,-0.845c-1.995,0.123 -8.952,1.78 -10.715,1.615c-0.889,-0.083 -1.743,-0.2 -2.556,-0.35c-4.122,-0.759 -7.198,-2.348 -8.487,-4.482c-1.837,-3.042 1.309,-4.949 6.857,-7.266c0.998,-0.416 2.074,-0.846 3.212,-1.298c1.63,-0.648 3.388,0.764 5.231,-0c1.409,-0.585 2.868,-3.317 4.356,-3.997c2.791,-1.277 -2.871,3.998 -0,2.264c3.405,-2.056 15.053,-11.06 17.84,-13.278c1.145,-0.91 8.979,-3.503 10.023,-4.381c0.684,-0.576 -5.394,0.549 -4.752,0c2.968,-2.54 5.482,-4.742 7.569,-6.119c1.698,-1.12 3.112,1.678 4.258,1.915c0.715,0.149 1.325,-2.758 1.834,-1.915c1.386,2.294 1.252,6.12 -0.283,10.5c-0.51,1.456 -14.657,-0.397 -15.472,1.145c-0.571,1.081 12.265,5.545 11.547,6.638c-1.915,2.919 -6.533,4.154 -9.453,6.841c-2.21,2.034 -2.514,5.619 -5.271,7.284Z" style="fill-opacity:0.15;stroke:#000;stroke-opacity:0.22;stroke-width:4.17px;"/></g></g><path d="M740.151,277.736c1.428,9.884 7.5,11.934 16.824,8.496l41.485,121.15l-239.854,82.132l-45.854,-133.912l74.194,-25.406c18.165,9.974 30.108,5.04 36.756,-12.586l116.449,-39.874Z" style="fill:none;stroke:#000;stroke-width:4.17px;"/><path id="left-side" d="M511.438,356.026l45.854,133.912l5.179,144.737l-51.033,-124.704l-0,-153.945Z" style="fill:#aba08a;"/><clipPath id="_clip4"><path d="M511.438,356.026l45.854,133.912l5.179,144.737l-51.033,-124.704l-0,-153.945Z"/></clipPath><g clip-path="url(#_clip4)"><path id="shadow" d="M556.947,489.514l5.524,145.161l-25.517,-58.923l-2.103,-150.991l22.096,64.753Z" style="fill-opacity:0.07;"/></g><path d="M511.438,356.026l45.854,133.912l5.179,144.737l-51.033,-124.704l-0,-153.945Z" style="fill:none;stroke:#000;stroke-width:4.17px;"/><g id="face"><path id="right-side" d="M798.643,409.425l-0.699,50.638c-9.246,8.128 -9.656,16.255 -0.336,24.383l-0.989,71.781l-232.486,78.448l-5.345,-143.118l239.855,-82.132Z" style="fill:#ddc9a0;stroke:#000;stroke-width:4.17px;"/><path id="shadow1" serif:id="shadow" d="M642.766,460.358l4.408,147.003l-82.599,27.314l-5.787,-145.161l83.978,-29.156Z" style="fill-opacity:0.07;"/></g></g><g id="tofu3" serif:id="tofu"><path id="top1" serif:id="top" d="M898.484,323.569c1.429,9.885 7.5,11.935 16.825,8.496l41.484,121.151l-239.854,82.131l-45.854,-133.912l74.195,-25.405c18.164,9.974 30.108,5.04 36.755,-12.586l116.449,-39.875Z" style="fill:#fffcf7;"/><clipPath id="_clip5"><path d="M898.484,323.569c1.429,9.885 7.5,11.935 16.825,8.496l41.484,121.151l-239.854,82.131l-45.854,-133.912l74.195,-25.405c18.164,9.974 30.108,5.04 36.755,-12.586l116.449,-39.875Z"/></clipPath><g clip-path="url(#_clip5)"><g id="shadows1" serif:id="shadows"><path d="M742.287,428.37c4.483,-3.46 11.947,-8.98 14.047,-7.415c1.722,1.283 8.267,-0.056 9.757,-1.968c5.308,-6.811 11.244,0.851 13.259,3.463c1.13,1.464 0.815,4.312 -0.483,7.008c-0.782,1.624 -3.605,-0.177 -4.999,1c-1.174,0.991 -0.843,5.075 -2.318,5.31c-1.691,0.27 -3.542,-0.089 -5.459,-1.381c-1.377,-0.928 -2.806,1.564 -4.264,2.432c-2.807,1.671 -5.721,3.568 -8.57,5.766c-14.402,11.113 -21.744,25.773 -26.094,20.136c-4.349,-5.637 0.723,-23.238 15.124,-34.351Z" style="fill-opacity:0.15;stroke:#000;stroke-opacity:0.22;stroke-width:4.17px;"/><path d="M851.639,366.434c1.394,-1.076 3.795,-2.689 5.509,-0.827c1.406,1.527 4.678,2.714 4.887,1.79c0.746,-3.29 6.672,4.379 8.687,6.991c1.13,1.464 1.9,3.475 2.061,5.045c0.097,0.946 -2.107,-1.333 -2.507,-0.923c-0.336,0.345 1.213,3.489 0.453,3.172c-0.871,-0.363 -2.042,-1.247 -3.561,-2.846c-1.092,-1.148 -1.073,0.227 -1.613,0.386c-1.037,0.306 -2.061,0.744 -2.947,1.427c-4.478,3.456 -3.764,11.898 -8.114,6.262c-4.35,-5.637 -7.334,-17.022 -2.855,-20.477Z" style="fill-opacity:0.15;stroke:#000;stroke-opacity:0.22;stroke-width:4.17px;"/><path d="M761.915,498.568c-1.49,0.938 -4.033,2.316 -5.563,0.3c-1.254,-1.654 -4.399,-3.146 -4.695,-2.247c-1.055,3.205 -6.226,-4.993 -7.984,-7.784c-0.985,-1.565 -1.561,-3.64 -1.572,-5.218c-0.007,-0.951 1.971,1.527 2.408,1.157c0.367,-0.312 -0.876,-3.588 -0.15,-3.201c0.833,0.445 1.915,1.436 3.276,3.171c0.977,1.247 1.089,-0.124 1.641,-0.231c1.062,-0.205 2.123,-0.544 3.069,-1.14c4.787,-3.015 0.213,-0.503 4.007,5.522c3.795,6.024 10.35,6.656 5.563,9.671Z" style="fill-opacity:0.15;stroke:#000;stroke-opacity:0.22;stroke-width:4.17px;"/><path d="M899.123,427.938c-2.387,1.441 -4.838,-6.546 -7.289,-5.599c-2.458,0.948 -4.917,10.829 -7.313,11.328c-2.127,0.442 0.85,-0.969 -1.136,-0.846c-1.995,0.124 -8.951,1.78 -10.715,1.615c-0.889,-0.083 -1.743,-0.2 -2.556,-0.35c-4.122,-0.759 -7.198,-2.347 -8.487,-4.482c-1.837,-3.042 1.309,-4.949 6.857,-7.265c0.998,-0.417 2.074,-0.847 3.213,-1.299c1.629,-0.647 3.387,0.765 5.23,-0c1.409,-0.585 2.868,-3.316 4.356,-3.997c2.792,-1.277 -2.87,3.998 0,2.264c3.406,-2.056 15.053,-11.06 17.84,-13.277c1.145,-0.911 8.979,-3.504 10.023,-4.382c0.684,-0.575 -5.393,0.549 -4.752,0c2.969,-2.54 5.483,-4.742 7.569,-6.118c1.698,-1.121 3.113,1.677 4.259,1.915c0.714,0.148 1.325,-2.759 1.834,-1.915c1.385,2.293 1.251,6.119 -0.284,10.5c-0.51,1.455 -14.656,-0.398 -15.472,1.144c-0.571,1.081 12.265,5.545 11.548,6.638c-1.916,2.919 -6.534,4.154 -9.454,6.841c-2.21,2.034 -2.514,5.62 -5.271,7.285Z" style="fill-opacity:0.15;stroke:#000;stroke-opacity:0.22;stroke-width:4.17px;"/></g></g><path d="M898.484,323.569c1.429,9.885 7.5,11.935 16.825,8.496l41.484,121.151l-239.854,82.131l-45.854,-133.912l74.195,-25.405c18.164,9.974 30.108,5.04 36.755,-12.586l116.449,-39.875Z" style="fill:none;stroke:#000;stroke-width:4.17px;"/><path id="left-side1" serif:id="left-side" d="M669.771,401.859l45.854,133.912l5.18,144.738l-51.034,-124.705l0,-153.945Z" style="fill:#aba08a;"/><clipPath id="_clip6"><path d="M669.771,401.859l45.854,133.912l5.18,144.738l-51.034,-124.705l0,-153.945Z"/></clipPath><g clip-path="url(#_clip6)"><path id="shadow2" serif:id="shadow" d="M715.28,535.347l5.525,145.162l-25.517,-58.924l-2.104,-150.991l22.096,64.753Z" style="fill-opacity:0.07;"/></g><path d="M669.771,401.859l45.854,133.912l5.18,144.738l-51.034,-124.705l0,-153.945Z" style="fill:none;stroke:#000;stroke-width:4.17px;"/><g id="face1" serif:id="face"><path id="right-side1" serif:id="right-side" d="M956.976,455.259l-0.698,50.637c-9.247,8.128 -9.656,16.256 -0.336,24.383l-0.99,71.781l-232.486,78.449l-5.344,-143.119l239.854,-82.131Z" style="fill:#ddc9a0;stroke:#000;stroke-width:4.17px;"/><path id="shadow3" serif:id="shadow" d="M801.099,506.191l4.408,147.003l-82.599,27.315l-5.786,-145.162l83.977,-29.156Z" style="fill-opacity:0.07;"/></g></g><g id="tofu4" serif:id="tofu"><path id="top2" serif:id="top" d="M838.736,220.104c1.429,9.884 7.5,11.934 16.824,8.496l41.485,121.15l-239.854,82.132l-45.854,-133.912l74.194,-25.406c18.165,9.974 30.108,5.04 36.756,-12.586l116.449,-39.874Z" style="fill:#eadbbb;"/><clipPath id="_clip7"><path d="M838.736,220.104c1.429,9.884 7.5,11.934 16.824,8.496l41.485,121.15l-239.854,82.132l-45.854,-133.912l74.194,-25.406c18.165,9.974 30.108,5.04 36.756,-12.586l116.449,-39.874Z"/></clipPath><g clip-path="url(#_clip7)"><g id="shadows2" serif:id="shadows"><path d="M682.539,324.904c4.483,-3.459 11.947,-8.979 14.047,-7.415c1.722,1.284 8.267,-0.055 9.757,-1.967c5.308,-6.811 11.244,0.851 13.259,3.462c1.13,1.465 0.815,4.313 -0.483,7.009c-0.782,1.624 -3.606,-0.177 -4.999,1c-1.174,0.991 -0.843,5.075 -2.318,5.31c-1.692,0.27 -3.542,-0.09 -5.459,-1.382c-1.377,-0.928 -2.806,1.565 -4.264,2.433c-2.808,1.671 -5.721,3.567 -8.57,5.766c-14.402,11.113 -21.744,25.772 -26.094,20.135c-4.35,-5.636 0.723,-23.238 15.124,-34.351Z" style="fill-opacity:0.15;stroke:#000;stroke-opacity:0.22;stroke-width:4.17px;"/><path d="M791.89,262.968c1.394,-1.075 3.795,-2.688 5.51,-0.826c1.406,1.527 4.678,2.713 4.887,1.79c0.746,-3.291 6.672,4.379 8.687,6.991c1.13,1.464 1.9,3.475 2.061,5.045c0.097,0.946 -2.107,-1.334 -2.507,-0.924c-0.336,0.346 1.213,3.489 0.453,3.173c-0.871,-0.364 -2.042,-1.247 -3.562,-2.846c-1.091,-1.148 -1.073,0.227 -1.612,0.386c-1.038,0.306 -2.061,0.743 -2.947,1.427c-4.478,3.456 -3.764,11.898 -8.114,6.261c-4.35,-5.637 -7.334,-17.021 -2.856,-20.477Z" style="fill-opacity:0.15;stroke:#000;stroke-opacity:0.22;stroke-width:4.17px;"/><path d="M702.167,395.103c-1.49,0.938 -4.033,2.316 -5.563,0.299c-1.255,-1.654 -4.399,-3.145 -4.695,-2.246c-1.055,3.204 -6.226,-4.993 -7.984,-7.784c-0.986,-1.566 -1.561,-3.64 -1.572,-5.218c-0.007,-0.951 1.971,1.527 2.408,1.157c0.367,-0.312 -0.876,-3.589 -0.15,-3.201c0.833,0.444 1.914,1.435 3.275,3.171c0.978,1.247 1.09,-0.124 1.642,-0.231c1.062,-0.206 2.122,-0.544 3.069,-1.141c4.787,-3.014 0.213,-0.502 4.007,5.523c3.795,6.024 10.349,6.656 5.563,9.671Z" style="fill-opacity:0.15;stroke:#000;stroke-opacity:0.22;stroke-width:4.17px;"/><path d="M839.375,324.472c-2.388,1.442 -4.838,-6.545 -7.289,-5.599c-2.458,0.949 -4.917,10.83 -7.313,11.328c-2.128,0.443 0.849,-0.968 -1.136,-0.845c-1.995,0.123 -8.952,1.78 -10.715,1.615c-0.889,-0.083 -1.743,-0.2 -2.556,-0.35c-4.122,-0.759 -7.198,-2.348 -8.487,-4.482c-1.837,-3.042 1.309,-4.949 6.857,-7.266c0.998,-0.416 2.074,-0.846 3.212,-1.298c1.63,-0.648 3.388,0.764 5.231,-0c1.409,-0.585 2.868,-3.317 4.356,-3.997c2.792,-1.277 -2.871,3.998 -0,2.264c3.405,-2.056 15.053,-11.06 17.84,-13.278c1.145,-0.91 8.979,-3.503 10.023,-4.381c0.684,-0.576 -5.394,0.549 -4.752,0c2.969,-2.54 5.482,-4.742 7.569,-6.119c1.698,-1.12 3.112,1.678 4.258,1.915c0.715,0.149 1.325,-2.758 1.835,-1.915c1.385,2.294 1.251,6.12 -0.284,10.5c-0.51,1.456 -14.656,-0.397 -15.472,1.145c-0.571,1.081 12.265,5.545 11.547,6.638c-1.915,2.919 -6.533,4.154 -9.453,6.841c-2.21,2.034 -2.514,5.619 -5.271,7.284Z" style="fill-opacity:0.15;stroke:#000;stroke-opacity:0.22;stroke-width:4.17px;"/></g></g><path d="M838.736,220.104c1.429,9.884 7.5,11.934 16.824,8.496l41.485,121.15l-239.854,82.132l-45.854,-133.912l74.194,-25.406c18.165,9.974 30.108,5.04 36.756,-12.586l116.449,-39.874Z" style="fill:none;stroke:#000;stroke-width:4.17px;"/><path id="left-side2" serif:id="left-side" d="M610.023,298.394l45.854,133.912l5.179,144.737l-51.033,-124.705l-0,-153.944Z" style="fill:#aba08a;"/><clipPath id="_clip8"><path d="M610.023,298.394l45.854,133.912l5.179,144.737l-51.033,-124.705l-0,-153.944Z"/></clipPath><g clip-path="url(#_clip8)"><path id="shadow4" serif:id="shadow" d="M655.532,431.882l5.524,145.161l-25.516,-58.923l-2.104,-150.991l22.096,64.753Z" style="fill-opacity:0.07;"/></g><path d="M610.023,298.394l45.854,133.912l5.179,144.737l-51.033,-124.705l-0,-153.944Z" style="fill:none;stroke:#000;stroke-width:4.17px;"/><g id="face2" serif:id="face"><path id="right-side2" serif:id="right-side" d="M897.228,351.793l-0.698,50.638c-9.247,8.128 -9.656,16.255 -0.337,24.383l-0.989,71.781l-232.486,78.448l-5.344,-143.118l239.854,-82.132Z" style="fill:#ecdfc2;stroke:#000;stroke-width:4.17px;"/><path id="shadow5" serif:id="shadow" d="M741.351,402.726l4.408,147.003l-82.599,27.314l-5.786,-145.161l83.977,-29.156Z" style="fill-opacity:0.07;"/></g></g><g id="tofu5" serif:id="tofu"><path id="top3" serif:id="top" d="M283.829,383.766c2.195,9.743 8.408,11.314 17.436,7.16l50.794,117.551l-232.728,100.563l-56.145,-129.933l71.99,-31.108c18.887,8.529 30.41,2.68 35.664,-15.41l112.989,-48.823Z" style="fill:#fffcf7;"/><clipPath id="_clip9"><path d="M283.829,383.766c2.195,9.743 8.408,11.314 17.436,7.16l50.794,117.551l-232.728,100.563l-56.145,-129.933l71.99,-31.108c18.887,8.529 30.41,2.68 35.664,-15.41l112.989,-48.823Z"/></clipPath><g clip-path="url(#_clip9)"><g id="shadows3" serif:id="shadows"><path d="M136.27,500.414c4.2,-3.798 11.211,-9.883 13.426,-8.487c1.817,1.146 8.238,-0.699 9.575,-2.722c4.761,-7.203 11.276,-0.027 13.488,2.42c1.241,1.372 1.148,4.236 0.065,7.025c-0.654,1.68 -3.609,0.104 -4.907,1.386c-1.093,1.08 -0.445,5.125 -1.897,5.475c-1.665,0.401 -3.538,0.186 -5.55,-0.953c-1.445,-0.817 -2.676,1.779 -4.062,2.758c-2.668,1.884 -5.425,4.002 -8.095,6.416c-13.492,12.201 -19.67,27.387 -24.446,22.106c-4.775,-5.28 -1.089,-23.223 12.403,-35.424Z" style="fill-opacity:0.15;stroke:#000;stroke-opacity:0.22;stroke-width:4.17px;"/><path d="M240.465,430.149c1.306,-1.181 3.574,-2.976 5.428,-1.254c1.521,1.414 4.875,2.342 5.012,1.404c0.488,-3.338 6.993,3.847 9.205,6.294c1.241,1.372 2.165,3.316 2.448,4.869c0.171,0.935 -2.205,-1.165 -2.571,-0.725c-0.309,0.37 1.48,3.384 0.699,3.127c-0.897,-0.294 -2.134,-1.084 -3.773,-2.56c-1.178,-1.059 -1.052,0.31 -1.577,0.511c-1.011,0.385 -1.997,0.901 -2.827,1.652c-4.196,3.794 -2.827,12.155 -7.602,6.874c-4.776,-5.281 -8.638,-16.398 -4.442,-20.192Z" style="fill-opacity:0.15;stroke:#000;stroke-opacity:0.22;stroke-width:4.17px;"/><path d="M161.306,568.87c-1.413,1.052 -3.841,2.623 -5.523,0.732c-1.38,-1.551 -4.631,-2.794 -4.856,-1.874c-0.802,3.277 -6.596,-4.493 -8.566,-7.139c-1.104,-1.483 -1.84,-3.507 -1.974,-5.079c-0.081,-0.948 2.084,1.369 2.491,0.966c0.342,-0.34 -1.153,-3.51 -0.399,-3.18c0.865,0.378 2.021,1.282 3.513,2.907c1.072,1.166 1.077,-0.209 1.618,-0.359c1.043,-0.288 2.074,-0.707 2.972,-1.376c4.537,-3.378 0.172,-0.517 4.425,5.193c4.252,5.711 10.836,5.831 6.299,9.209Z" style="fill-opacity:0.15;stroke:#000;stroke-opacity:0.22;stroke-width:4.17px;"/><path d="M292.596,487.768c-2.268,1.623 -5.333,-6.149 -7.703,-5.015c-2.377,1.138 -4.059,11.18 -6.409,11.863c-2.086,0.607 0.772,-1.031 -1.198,-0.754c-1.979,0.279 -8.786,2.472 -10.557,2.445c-0.892,-0.014 -1.753,-0.064 -2.575,-0.15c-4.169,-0.436 -7.359,-1.78 -8.811,-3.808c-2.068,-2.889 0.92,-5.036 6.271,-7.777c0.962,-0.493 2.001,-1.006 3.101,-1.545c1.574,-0.772 3.437,0.498 5.215,-0.407c1.359,-0.693 2.601,-3.53 4.031,-4.324c2.684,-1.491 -2.55,4.209 0.177,2.257c3.235,-2.315 14.146,-12.199 16.751,-14.627c1.071,-0.997 8.679,-4.192 9.652,-5.148c0.637,-0.628 -5.335,0.967 -4.738,0.37c2.762,-2.764 5.097,-5.155 7.069,-6.69c1.606,-1.249 3.234,1.43 4.395,1.578c0.724,0.092 1.106,-2.854 1.68,-2.053c1.559,2.179 1.724,6.004 0.535,10.491c-0.395,1.491 -14.643,0.745 -15.336,2.346c-0.485,1.122 12.66,4.572 12.029,5.718c-1.682,3.06 -6.19,4.651 -8.892,7.557c-2.044,2.2 -2.068,5.798 -4.687,7.673Z" style="fill-opacity:0.15;stroke:#000;stroke-opacity:0.22;stroke-width:4.17px;"/></g></g><path d="M283.829,383.766c2.195,9.743 8.408,11.314 17.436,7.16l50.794,117.551l-232.728,100.563l-56.145,-129.933l71.99,-31.108c18.887,8.529 30.41,2.68 35.664,-15.41l112.989,-48.823Z" style="fill:none;stroke:#000;stroke-width:4.17px;"/><path id="top4" serif:id="top" d="M283.829,383.766c2.195,9.743 8.408,11.314 17.436,7.16l50.794,117.551l-232.728,100.563l-56.145,-129.933l71.99,-31.108c18.887,8.529 30.41,2.68 35.664,-15.41l112.989,-48.823Z" style="fill:#fffcf7;"/><clipPath id="_clip10"><path d="M283.829,383.766c2.195,9.743 8.408,11.314 17.436,7.16l50.794,117.551l-232.728,100.563l-56.145,-129.933l71.99,-31.108c18.887,8.529 30.41,2.68 35.664,-15.41l112.989,-48.823Z"/></clipPath><g clip-path="url(#_clip10)"><g id="shadows4" serif:id="shadows"><path d="M136.27,500.414c4.2,-3.798 11.211,-9.883 13.426,-8.487c1.817,1.146 8.238,-0.699 9.575,-2.722c4.761,-7.203 11.276,-0.027 13.488,2.42c1.241,1.372 1.148,4.236 0.065,7.025c-0.654,1.68 -3.609,0.104 -4.907,1.386c-1.093,1.08 -0.445,5.125 -1.897,5.475c-1.665,0.401 -3.538,0.186 -5.55,-0.953c-1.445,-0.817 -2.676,1.779 -4.062,2.758c-2.668,1.884 -5.425,4.002 -8.095,6.416c-13.492,12.201 -19.67,27.387 -24.446,22.106c-4.775,-5.28 -1.089,-23.223 12.403,-35.424Z" style="fill-opacity:0.15;stroke:#000;stroke-opacity:0.22;stroke-width:4.17px;"/><path d="M240.465,430.149c1.306,-1.181 3.574,-2.976 5.428,-1.254c1.521,1.414 4.875,2.342 5.012,1.404c0.488,-3.338 6.993,3.847 9.205,6.294c1.241,1.372 2.165,3.316 2.448,4.869c0.171,0.935 -2.205,-1.165 -2.571,-0.725c-0.309,0.37 1.48,3.384 0.699,3.127c-0.897,-0.294 -2.134,-1.084 -3.773,-2.56c-1.178,-1.059 -1.052,0.31 -1.577,0.511c-1.011,0.385 -1.997,0.901 -2.827,1.652c-4.196,3.794 -2.827,12.155 -7.602,6.874c-4.776,-5.281 -8.638,-16.398 -4.442,-20.192Z" style="fill-opacity:0.15;stroke:#000;stroke-opacity:0.22;stroke-width:4.17px;"/><path d="M161.306,568.87c-1.413,1.052 -3.841,2.623 -5.523,0.732c-1.38,-1.551 -4.631,-2.794 -4.856,-1.874c-0.802,3.277 -6.596,-4.493 -8.566,-7.139c-1.104,-1.483 -1.84,-3.507 -1.974,-5.079c-0.081,-0.948 2.084,1.369 2.491,0.966c0.342,-0.34 -1.153,-3.51 -0.399,-3.18c0.865,0.378 2.021,1.282 3.513,2.907c1.072,1.166 1.077,-0.209 1.618,-0.359c1.043,-0.288 2.074,-0.707 2.972,-1.376c4.537,-3.378 0.172,-0.517 4.425,5.193c4.252,5.711 10.836,5.831 6.299,9.209Z" style="fill-opacity:0.15;stroke:#000;stroke-opacity:0.22;stroke-width:4.17px;"/><path d="M292.596,487.768c-2.268,1.623 -5.333,-6.149 -7.703,-5.015c-2.377,1.138 -4.059,11.18 -6.409,11.863c-2.086,0.607 0.772,-1.031 -1.198,-0.754c-1.979,0.279 -8.786,2.472 -10.557,2.445c-0.892,-0.014 -1.753,-0.064 -2.575,-0.15c-4.169,-0.436 -7.359,-1.78 -8.811,-3.808c-2.068,-2.889 0.92,-5.036 6.271,-7.777c0.962,-0.493 2.001,-1.006 3.101,-1.545c1.574,-0.772 3.437,0.498 5.215,-0.407c1.359,-0.693 2.601,-3.53 4.031,-4.324c2.684,-1.491 -2.55,4.209 0.177,2.257c3.235,-2.315 14.146,-12.199 16.751,-14.627c1.071,-0.997 8.679,-4.192 9.652,-5.148c0.637,-0.628 -5.335,0.967 -4.738,0.37c2.762,-2.764 5.097,-5.155 7.069,-6.69c1.606,-1.249 3.234,1.43 4.395,1.578c0.724,0.092 1.106,-2.854 1.68,-2.053c1.559,2.179 1.724,6.004 0.535,10.491c-0.395,1.491 -14.643,0.745 -15.336,2.346c-0.485,1.122 12.66,4.572 12.029,5.718c-1.682,3.06 -6.19,4.651 -8.892,7.557c-2.044,2.2 -2.068,5.798 -4.687,7.673Z" style="fill-opacity:0.15;stroke:#000;stroke-opacity:0.22;stroke-width:4.17px;"/></g><g id="shadows5" serif:id="shadows"><path d="M77.936,492.08c4.2,-3.798 11.212,-9.882 13.427,-8.486c1.817,1.145 8.238,-0.7 9.574,-2.722c4.762,-7.203 11.276,-0.027 13.489,2.42c1.241,1.372 1.148,4.236 0.064,7.024c-0.653,1.681 -3.608,0.105 -4.906,1.387c-1.093,1.079 -0.445,5.125 -1.897,5.474c-1.666,0.401 -3.538,0.187 -5.55,-0.952c-1.445,-0.818 -2.676,1.778 -4.062,2.757c-2.669,1.885 -5.426,4.002 -8.095,6.416c-13.492,12.201 -19.67,27.388 -24.446,22.107c-4.775,-5.281 -1.09,-23.224 12.402,-35.425Z" style="fill-opacity:0.15;stroke:#000;stroke-opacity:0.22;stroke-width:4.17px;"/><path d="M182.132,421.816c1.306,-1.182 3.574,-2.977 5.428,-1.254c1.521,1.413 4.875,2.341 5.012,1.404c0.487,-3.338 6.992,3.847 9.205,6.293c1.241,1.372 2.165,3.317 2.448,4.869c0.17,0.936 -2.205,-1.165 -2.572,-0.725c-0.308,0.371 1.481,3.384 0.699,3.128c-0.897,-0.295 -2.133,-1.085 -3.773,-2.56c-1.177,-1.06 -1.051,0.31 -1.577,0.51c-1.011,0.386 -1.997,0.902 -2.827,1.653c-4.195,3.794 -2.826,12.155 -7.601,6.874c-4.776,-5.281 -8.638,-16.398 -4.442,-20.192Z" style="fill-opacity:0.15;stroke:#000;stroke-opacity:0.22;stroke-width:4.17px;"/><path d="M102.972,560.537c-1.412,1.051 -3.84,2.623 -5.522,0.732c-1.38,-1.552 -4.631,-2.794 -4.856,-1.874c-0.803,3.277 -6.596,-4.493 -8.566,-7.139c-1.105,-1.484 -1.84,-3.507 -1.974,-5.08c-0.081,-0.947 2.084,1.369 2.491,0.966c0.342,-0.339 -1.153,-3.509 -0.399,-3.179c0.865,0.378 2.02,1.282 3.513,2.906c1.071,1.167 1.076,-0.208 1.618,-0.358c1.043,-0.288 2.074,-0.708 2.971,-1.376c4.537,-3.379 0.173,-0.517 4.425,5.193c4.253,5.711 10.836,5.83 6.299,9.209Z" style="fill-opacity:0.15;stroke:#000;stroke-opacity:0.22;stroke-width:4.17px;"/><path d="M234.262,479.434c-2.268,1.624 -5.333,-6.148 -7.703,-5.014c-2.376,1.137 -4.058,11.18 -6.409,11.863c-2.086,0.607 0.772,-1.032 -1.198,-0.754c-1.979,0.278 -8.785,2.471 -10.556,2.444c-0.893,-0.013 -1.753,-0.064 -2.576,-0.149c-4.168,-0.436 -7.358,-1.78 -8.81,-3.808c-2.068,-2.89 0.92,-5.036 6.27,-7.777c0.963,-0.494 2.002,-1.006 3.102,-1.545c1.574,-0.773 3.437,0.498 5.214,-0.408c1.36,-0.693 2.601,-3.529 4.032,-4.324c2.684,-1.49 -2.551,4.21 0.176,2.258c3.235,-2.316 14.146,-12.199 16.752,-14.627c1.07,-0.997 8.679,-4.192 9.651,-5.149c0.638,-0.627 -5.334,0.968 -4.737,0.37c2.762,-2.763 5.096,-5.155 7.069,-6.689c1.606,-1.249 3.234,1.429 4.395,1.577c0.724,0.092 1.106,-2.853 1.679,-2.052c1.56,2.179 1.725,6.003 0.536,10.49c-0.396,1.491 -14.643,0.745 -15.336,2.347c-0.486,1.122 12.659,4.572 12.029,5.718c-1.683,3.059 -6.19,4.65 -8.892,7.557c-2.045,2.199 -2.068,5.798 -4.688,7.672Z" style="fill-opacity:0.15;stroke:#000;stroke-opacity:0.22;stroke-width:4.17px;"/></g></g><path d="M283.829,383.766c2.195,9.743 8.408,11.314 17.436,7.16l50.794,117.551l-232.728,100.563l-56.145,-129.933l71.99,-31.108c18.887,8.529 30.41,2.68 35.664,-15.41l112.989,-48.823Z" style="fill:none;stroke:#000;stroke-width:4.17px;"/><path id="left-side3" serif:id="left-side" d="M61.909,479.632l56.145,129.933l16.437,143.895l-60.592,-120.351l-11.99,-153.477Z" style="fill:#aba08a;"/><clipPath id="_clip11"><path d="M61.909,479.632l56.145,129.933l16.437,143.895l-60.592,-120.351l-11.99,-153.477Z"/></clipPath><g clip-path="url(#_clip11)"><path id="shadow6" serif:id="shadow" d="M117.677,609.17l16.814,144.29l-30.029,-56.757l-13.857,-150.369l27.072,62.836Z" style="fill-opacity:0.07;"/></g><path d="M61.909,479.632l56.145,129.933l16.437,143.895l-60.592,-120.351l-11.99,-153.477Z" style="fill:none;stroke:#000;stroke-width:4.17px;"/><g id="face3" serif:id="face"><path id="right-side3" serif:id="right-side" d="M352.401,510.5l3.248,50.538c-8.586,8.823 -8.361,16.958 1.564,24.335l4.604,71.64l-225.67,96.317l-16.475,-142.267l232.729,-100.563Z" style="fill:#ffdb8f;stroke:#000;stroke-width:4.17px;"/><path id="shadow7" serif:id="shadow" d="M200.965,573.418l15.843,146.213l-80.22,33.665l-17.075,-144.27l81.452,-35.608Z" style="fill-opacity:0.07;"/></g></g><g id="tofu6" serif:id="tofu"><path id="top5" serif:id="top" d="M501.27,322.613c2.08,9.768 8.275,11.411 17.35,7.362l49.423,118.135l-233.884,97.846l-54.628,-130.578l72.348,-30.267c18.785,8.748 30.376,3.033 35.841,-14.994l113.55,-47.504Z" style="fill:#fffcf7;"/><clipPath id="_clip12"><path d="M501.27,322.613c2.08,9.768 8.275,11.411 17.35,7.362l49.423,118.135l-233.884,97.846l-54.628,-130.578l72.348,-30.267c18.785,8.748 30.376,3.033 35.841,-14.994l113.55,-47.504Z"/></clipPath><g clip-path="url(#_clip12)"><g id="shadows6" serif:id="shadows"><path d="M352.361,437.534c4.244,-3.749 11.326,-9.751 13.525,-8.329c1.803,1.166 8.245,-0.604 9.605,-2.61c4.846,-7.148 11.276,0.104 13.46,2.576c1.224,1.386 1.098,4.249 -0.018,7.025c-0.672,1.673 -3.609,0.062 -4.922,1.329c-1.105,1.067 -0.504,5.12 -1.96,5.452c-1.671,0.382 -3.54,0.146 -5.539,-1.017c-1.435,-0.834 -2.696,1.748 -4.094,2.71c-2.69,1.854 -5.472,3.939 -8.169,6.322c-13.633,12.043 -19.988,27.156 -24.702,21.82c-4.713,-5.336 -0.819,-23.235 12.814,-35.278Z" style="fill-opacity:0.15;stroke:#000;stroke-opacity:0.22;stroke-width:4.17px;"/><path d="M457.368,368.488c1.32,-1.166 3.609,-2.935 5.442,-1.191c1.505,1.431 4.848,2.398 4.996,1.463c0.526,-3.333 6.947,3.927 9.131,6.4c1.224,1.386 2.126,3.341 2.391,4.897c0.159,0.937 -2.191,-1.191 -2.563,-0.755c-0.313,0.367 1.441,3.401 0.662,3.135c-0.893,-0.305 -2.12,-1.109 -3.742,-2.603c-1.165,-1.073 -1.056,0.297 -1.583,0.492c-1.016,0.374 -2.008,0.878 -2.846,1.619c-4.24,3.745 -2.968,12.121 -7.682,6.785c-4.713,-5.336 -8.445,-16.498 -4.206,-20.242Z" style="fill-opacity:0.15;stroke:#000;stroke-opacity:0.22;stroke-width:4.17px;"/><path d="M376.599,506.277c-1.425,1.035 -3.871,2.578 -5.531,0.668c-1.362,-1.567 -4.598,-2.847 -4.834,-1.93c-0.841,3.267 -6.543,-4.57 -8.482,-7.238c-1.088,-1.497 -1.799,-3.529 -1.915,-5.103c-0.07,-0.948 2.068,1.394 2.479,0.995c0.346,-0.335 -1.111,-3.522 -0.361,-3.184c0.86,0.389 2.005,1.306 3.478,2.947c1.058,1.18 1.079,-0.196 1.623,-0.339c1.046,-0.276 2.082,-0.683 2.987,-1.341c4.576,-3.326 0.178,-0.516 4.364,5.244c4.186,5.76 10.767,5.956 6.192,9.281Z" style="fill-opacity:0.15;stroke:#000;stroke-opacity:0.22;stroke-width:4.17px;"/><path d="M508.824,426.71c-2.287,1.596 -5.261,-6.211 -7.644,-5.104c-2.39,1.109 -4.188,11.131 -6.547,11.788c-2.093,0.582 0.784,-1.023 -1.189,-0.769c-1.982,0.256 -8.814,2.369 -10.584,2.322c-0.892,-0.024 -1.752,-0.085 -2.574,-0.18c-4.163,-0.484 -7.337,-1.865 -8.765,-3.91c-2.034,-2.914 0.978,-5.025 6.36,-7.704c0.969,-0.482 2.014,-0.982 3.12,-1.509c1.583,-0.753 3.431,0.539 5.219,-0.346c1.367,-0.677 2.641,-3.499 4.081,-4.277c2.701,-1.459 -2.599,4.179 0.15,2.26c3.262,-2.278 14.287,-12.034 16.921,-14.431c1.082,-0.985 8.728,-4.091 9.711,-5.036c0.645,-0.62 -5.345,0.905 -4.742,0.315c2.794,-2.731 5.156,-5.096 7.147,-6.607c1.62,-1.23 3.217,1.467 4.376,1.628c0.723,0.101 1.139,-2.84 1.703,-2.032c1.534,2.197 1.655,6.023 0.413,10.496c-0.412,1.486 -14.65,0.574 -15.362,2.167c-0.498,1.117 12.606,4.72 11.962,5.858c-1.718,3.04 -6.244,4.578 -8.979,7.453c-2.071,2.176 -2.136,5.774 -4.777,7.618Z" style="fill-opacity:0.15;stroke:#000;stroke-opacity:0.22;stroke-width:4.17px;"/></g></g><path d="M501.27,322.613c2.08,9.768 8.275,11.411 17.35,7.362l49.423,118.135l-233.884,97.846l-54.628,-130.578l72.348,-30.267c18.785,8.748 30.376,3.033 35.841,-14.994l113.55,-47.504Z" style="fill:none;stroke:#000;stroke-width:4.17px;"/><path id="left-side4" serif:id="left-side" d="M278.248,415.888l54.628,130.578l14.759,144.076l-59.185,-121.048l-10.202,-153.606Z" style="fill:#aba08a;"/><clipPath id="_clip13"><path d="M278.248,415.888l54.628,130.578l14.759,144.076l-59.185,-121.048l-10.202,-153.606Z"/></clipPath><g clip-path="url(#_clip13)"><path id="shadow8" serif:id="shadow" d="M332.504,546.066l15.131,144.476l-29.365,-57.102l-12.105,-150.52l26.339,63.146Z" style="fill-opacity:0.07;"/></g><path d="M278.248,415.888l54.628,130.578l14.759,144.076l-59.185,-121.048l-10.202,-153.606Z" style="fill:none;stroke:#000;stroke-width:4.17px;"/><g id="face4" serif:id="face"><path id="right-side4" serif:id="right-side" d="M568.36,450.137l2.659,50.572c-8.687,8.723 -8.557,16.86 1.281,24.352l3.769,71.688l-226.775,93.683l-14.818,-142.449l233.884,-97.846Z" style="fill:#ddc9a0;stroke:#000;stroke-width:4.17px;"/><path id="shadow9" serif:id="shadow" d="M416.202,511.287l14.139,146.388l-80.607,32.728l-15.393,-144.459l81.861,-34.657Z" style="fill-opacity:0.07;"/></g></g><g id="tofu7" serif:id="tofu"><path id="top6" serif:id="top" d="M451.051,460.916c4.387,8.972 10.795,9.064 18.618,2.935l76.597,102.622l-203.171,151.648l-84.665,-113.432l62.847,-46.909c20.346,3.931 30.205,-4.424 31.135,-23.239l98.639,-73.625Z" style="fill:#e9e9e9;"/><clipPath id="_clip14"><path d="M451.051,460.916c4.387,8.972 10.795,9.064 18.618,2.935l76.597,102.622l-203.171,151.648l-84.665,-113.432l62.847,-46.909c20.346,3.931 30.205,-4.424 31.135,-23.239l98.639,-73.625Z"/></clipPath><g clip-path="url(#_clip14)"><g id="shadows7" serif:id="shadows"><path d="M454.389,520.867c0.741,5.614 1.768,14.84 -0.639,15.871c-1.975,0.845 -4.102,7.178 -3.197,9.426c3.226,8.01 -6.381,9.297 -9.651,9.729c-1.834,0.242 -4.139,-1.461 -5.818,-3.936c-1.013,-1.492 1.963,-3.03 1.645,-4.826c-0.269,-1.513 -3.967,-3.277 -3.43,-4.67c0.616,-1.599 1.856,-3.019 3.936,-4.028c1.494,-0.725 0.056,-3.212 0.037,-4.909c-0.036,-3.267 -0.213,-6.739 -0.684,-10.307c-2.381,-18.034 -11.373,-31.743 -4.315,-32.675c7.059,-0.932 19.735,12.291 22.116,30.325Z" style="fill-opacity:0.15;stroke:#000;stroke-opacity:0.22;stroke-width:4.17px;"/><path d="M453.056,646.533c0.231,1.746 0.42,4.632 -2.05,5.18c-2.027,0.449 -4.696,2.683 -4.002,3.328c2.471,2.297 -7.137,3.572 -10.407,4.003c-1.834,0.243 -3.96,-0.101 -5.398,-0.75c-0.867,-0.391 2.211,-1.153 2.057,-1.705c-0.13,-0.464 -3.627,-0.702 -2.971,-1.2c0.751,-0.571 2.103,-1.14 4.249,-1.652c1.541,-0.368 0.342,-1.042 0.476,-1.588c0.256,-1.051 0.391,-2.156 0.245,-3.265c-0.74,-5.608 -8.4,-9.229 -1.342,-10.161c7.059,-0.932 18.403,2.202 19.143,7.81Z" style="fill-opacity:0.15;stroke:#000;stroke-opacity:0.22;stroke-width:4.17px;"/><path d="M383.825,502.6c-0.064,-1.759 0.021,-4.651 2.533,-4.961c2.061,-0.255 4.929,-2.226 4.3,-2.933c-2.242,-2.522 7.444,-2.878 10.74,-2.997c1.849,-0.067 3.932,0.477 5.303,1.26c0.825,0.471 -2.311,0.938 -2.21,1.501c0.085,0.475 3.543,1.045 2.844,1.478c-0.803,0.497 -2.203,0.935 -4.387,1.241c-1.569,0.219 -0.44,1.004 -0.625,1.535c-0.355,1.022 -0.595,2.109 -0.554,3.227c0.204,5.653 0.328,0.436 -6.788,0.694c-7.115,0.257 -10.952,5.608 -11.156,-0.045Z" style="fill-opacity:0.15;stroke:#000;stroke-opacity:0.22;stroke-width:4.17px;"/><path d="M376.026,656.723c-0.048,-2.789 8.089,-0.898 8.502,-3.493c0.413,-2.602 -6.898,-9.689 -6.126,-12.012c0.686,-2.062 0.411,1.221 1.302,-0.558c0.894,-1.787 2.954,-8.635 3.982,-10.077c0.518,-0.727 1.048,-1.407 1.586,-2.035c2.726,-3.184 5.644,-5.047 8.137,-5.09c3.553,-0.061 3.623,3.617 2.841,9.578c-0.141,1.072 -0.309,2.218 -0.489,3.43c-0.259,1.734 -2.363,2.546 -2.626,4.524c-0.202,1.512 1.428,4.145 1.269,5.774c-0.297,3.055 -2.016,-4.49 -1.958,-1.137c0.069,3.977 2.008,18.571 2.527,22.095c0.213,1.447 -1.478,9.524 -1.243,10.867c0.155,0.881 2.233,-4.94 2.386,-4.109c0.706,3.842 1.349,7.122 1.492,9.617c0.116,2.031 -3.013,1.85 -3.794,2.722c-0.487,0.544 1.72,2.531 0.735,2.548c-2.679,0.046 -5.92,-1.99 -8.938,-5.517c-1.003,-1.172 7.702,-12.476 6.777,-13.955c-0.648,-1.037 -10.953,7.824 -11.538,6.654c-1.563,-3.122 -0.313,-7.736 -1.171,-11.61c-0.649,-2.933 -3.597,-4.996 -3.653,-8.216Z" style="fill-opacity:0.15;stroke:#000;stroke-opacity:0.22;stroke-width:4.17px;"/></g></g><path d="M451.051,460.916c4.387,8.972 10.795,9.064 18.618,2.935l76.597,102.622l-203.171,151.648l-84.665,-113.432l62.847,-46.909c20.346,3.931 30.205,-4.424 31.135,-23.239l98.639,-73.625Z" style="fill:none;stroke:#000;stroke-width:4.17px;"/><path id="left-side5" serif:id="left-side" d="M257.309,605.495l84.666,113.432l49.261,136.195l-86.776,-103.081l-47.151,-146.546Z" style="fill:#aba08a;"/><clipPath id="_clip15"><path d="M257.309,605.495l84.666,113.432l49.261,136.195l-86.776,-103.081l-47.151,-146.546Z"/></clipPath><g clip-path="url(#_clip15)"><path id="shadow10" serif:id="shadow" d="M341.516,718.629l49.72,136.493l-42.338,-48.276l-48.249,-143.091l40.867,54.874Z" style="fill-opacity:0.07;"/></g><path d="M257.309,605.495l84.666,113.432l49.261,136.195l-86.776,-103.081l-47.151,-146.546Z" style="fill:none;stroke:#000;stroke-width:4.17px;"/><g id="face5" serif:id="face"><path id="right-side5" serif:id="right-side" d="M547.066,568.362l14.845,48.418c-6.313,10.569 -4.213,18.431 7.148,23.314l21.043,68.634l-197.284,145.885l-48.923,-134.603l203.171,-151.648Z" style="fill:#ddc9a0;stroke:#000;stroke-width:4.17px;"/><path id="shadow11" serif:id="shadow" d="M414.281,664.589l49.22,138.588l-70.263,51.301l-49.969,-136.413l71.012,-53.476Z" style="fill-opacity:0.07;"/></g></g><g id="tofu8" serif:id="tofu"><path id="top7" serif:id="top" d="M653.644,489.444c2.477,9.675 8.733,11.064 17.636,6.648l54.198,116.022l-229.7,107.301l-59.907,-128.242l71.054,-33.192c19.127,7.975 30.474,1.792 35.2,-16.443l111.519,-52.094Z" style="fill:#f9efd9;"/><clipPath id="_clip16"><path d="M653.644,489.444c2.477,9.675 8.733,11.064 17.636,6.648l54.198,116.022l-229.7,107.301l-59.907,-128.242l71.054,-33.192c19.127,7.975 30.474,1.792 35.2,-16.443l111.519,-52.094Z"/></clipPath><g clip-path="url(#_clip16)"><g id="shadows8" serif:id="shadows"><path d="M509.545,610.341c4.087,-3.919 10.919,-10.205 13.174,-8.874c1.849,1.092 8.213,-0.939 9.491,-3c4.549,-7.339 11.27,-0.355 13.553,2.026c1.28,1.335 1.271,4.201 0.269,7.02c-0.604,1.698 -3.604,0.209 -4.864,1.529c-1.061,1.111 -0.295,5.136 -1.737,5.527c-1.653,0.449 -3.531,0.29 -5.575,-0.79c-1.468,-0.775 -2.623,1.856 -3.98,2.874c-2.612,1.962 -5.307,4.159 -7.905,6.649c-13.13,12.589 -18.864,27.949 -23.791,22.81c-4.927,-5.14 -1.766,-23.182 11.365,-35.771Z" style="fill-opacity:0.15;stroke:#000;stroke-opacity:0.22;stroke-width:4.17px;"/><path d="M611.649,537.07c1.271,-1.218 3.486,-3.079 5.389,-1.411c1.562,1.369 4.942,2.198 5.051,1.258c0.39,-3.351 7.102,3.641 9.385,6.022c1.28,1.335 2.26,3.252 2.588,4.796c0.198,0.93 -2.238,-1.101 -2.591,-0.65c-0.298,0.379 1.578,3.339 0.789,3.106c-0.905,-0.269 -2.163,-1.022 -3.845,-2.449c-1.208,-1.025 -1.043,0.34 -1.562,0.556c-0.999,0.415 -1.97,0.959 -2.778,1.734c-4.083,3.915 -2.47,12.232 -7.398,7.093c-4.927,-5.14 -9.111,-16.14 -5.028,-20.055Z" style="fill-opacity:0.15;stroke:#000;stroke-opacity:0.22;stroke-width:4.17px;"/><path d="M536.565,678.039c-1.381,1.092 -3.763,2.734 -5.499,0.892c-1.425,-1.51 -4.711,-2.657 -4.909,-1.731c-0.706,3.299 -6.724,-4.299 -8.77,-6.886c-1.147,-1.451 -1.941,-3.452 -2.121,-5.02c-0.109,-0.945 2.123,1.307 2.518,0.893c0.332,-0.349 -1.255,-3.475 -0.491,-3.167c0.875,0.353 2.057,1.223 3.595,2.803c1.105,1.135 1.071,-0.24 1.608,-0.405c1.034,-0.318 2.052,-0.768 2.93,-1.462c4.436,-3.51 0.157,-0.523 4.574,5.062c4.417,5.584 11.001,5.512 6.565,9.021Z" style="fill-opacity:0.15;stroke:#000;stroke-opacity:0.22;stroke-width:4.17px;"/><path d="M665.436,593.146c-2.22,1.689 -5.51,-5.991 -7.846,-4.788c-2.342,1.206 -3.731,11.293 -6.06,12.045c-2.068,0.667 0.741,-1.054 -1.22,-0.719c-1.97,0.336 -8.71,2.726 -10.48,2.751c-0.893,0.013 -1.755,-0.013 -2.579,-0.075c-4.18,-0.314 -7.408,-1.564 -8.918,-3.549c-2.151,-2.828 0.772,-5.061 6.041,-7.957c0.948,-0.521 1.972,-1.063 3.055,-1.635c1.551,-0.817 3.451,0.399 5.201,-0.559c1.338,-0.732 2.497,-3.603 3.904,-4.439c2.639,-1.568 -2.427,4.282 0.242,2.251c3.166,-2.408 13.784,-12.606 16.318,-15.109c1.041,-1.028 8.553,-4.443 9.497,-5.427c0.619,-0.646 -5.303,1.122 -4.724,0.508c2.68,-2.843 4.944,-5.302 6.871,-6.893c1.568,-1.295 3.274,1.335 4.439,1.449c0.727,0.071 1.023,-2.884 1.619,-2.1c1.622,2.132 1.899,5.95 0.84,10.47c-0.351,1.502 -14.615,1.171 -15.26,2.792c-0.453,1.136 12.787,4.202 12.19,5.365c-1.592,3.108 -6.052,4.829 -8.668,7.813c-1.98,2.258 -1.898,5.856 -4.462,7.806Z" style="fill-opacity:0.15;stroke:#000;stroke-opacity:0.22;stroke-width:4.17px;"/></g></g><path d="M653.644,489.444c2.477,9.675 8.733,11.064 17.636,6.648l54.198,116.022l-229.7,107.301l-59.907,-128.242l71.054,-33.192c19.127,7.975 30.474,1.792 35.2,-16.443l111.519,-52.094Z" style="fill:none;stroke:#000;stroke-width:4.17px;"/><path id="left-side6" serif:id="left-side" d="M434.611,591.735l59.906,128.242l20.622,143.355l-64.072,-118.535l-16.456,-153.062Z" style="fill:#aba08a;"/><clipPath id="_clip17"><path d="M434.611,591.735l59.906,128.242l20.622,143.355l-64.072,-118.535l-16.456,-153.062Z"/></clipPath><g clip-path="url(#_clip17)"><path id="shadow12" serif:id="shadow" d="M494.129,719.592l21.01,143.74l-31.67,-55.858l-18.232,-149.902l28.892,62.02Z" style="fill-opacity:0.07;"/></g><path d="M434.611,591.735l59.906,128.242l20.622,143.355l-64.072,-118.535l-16.456,-153.062Z" style="fill:none;stroke:#000;stroke-width:4.17px;"/><g id="face6" serif:id="face"><path id="right-side6" serif:id="right-side" d="M725.878,614.126l4.719,50.422c-8.325,9.07 -7.863,17.194 2.272,24.279l6.689,71.475l-222.767,102.852l-20.613,-141.727l229.7,-107.301Z" style="fill:#ddc9a0;stroke:#000;stroke-width:4.17px;"/><path id="shadow13" serif:id="shadow" d="M576.339,681.429l20.097,145.69l-79.206,35.988l-21.27,-143.712l80.379,-37.966Z" style="fill-opacity:0.07;"/></g></g><g id="tofu9" serif:id="tofu"><path id="top8" serif:id="top" d="M709.327,202.816c-3.816,9.23 0.359,14.092 10.133,15.893l-26.156,125.357l-248.182,-51.783l28.911,-138.561l76.771,16.018c10.53,17.848 23.319,19.7 38.032,7.935l120.491,25.141Z" style="fill:#ffefce;"/><clipPath id="_clip18"><path d="M709.327,202.816c-3.816,9.23 0.359,14.092 10.133,15.893l-26.156,125.357l-248.182,-51.783l28.911,-138.561l76.771,16.018c10.53,17.848 23.319,19.7 38.032,7.935l120.491,25.141Z"/></clipPath><g clip-path="url(#_clip18)"><g id="shadows9" serif:id="shadows"><path d="M571.518,271.557c5.621,-0.687 14.857,-1.625 15.864,0.792c0.826,1.983 7.138,4.171 9.395,3.288c8.041,-3.148 9.235,6.47 9.635,9.744c0.224,1.836 -1.501,4.125 -3.992,5.781c-1.502,0.997 -3.011,-1.993 -4.81,-1.692c-1.515,0.254 -3.315,3.934 -4.703,3.384c-1.593,-0.631 -3,-1.885 -3.989,-3.974c-0.711,-1.501 -3.212,-0.087 -4.909,-0.085c-3.267,0.005 -6.74,0.148 -10.313,0.585c-18.056,2.207 -31.852,11.066 -32.716,3.998c-0.863,-7.067 12.482,-19.615 30.538,-21.821Z" style="fill-opacity:0.15;stroke:#000;stroke-opacity:0.22;stroke-width:4.17px;"/><path d="M647.165,215.77c1.748,-0.214 4.636,-0.375 5.16,2.101c0.43,2.031 2.638,4.721 3.29,4.033c2.32,-2.448 3.502,7.172 3.902,10.446c0.225,1.836 -0.14,3.958 -0.802,5.39c-0.4,0.863 -1.132,-2.222 -1.685,-2.073c-0.465,0.125 -0.738,3.619 -1.229,2.959c-0.564,-0.757 -1.12,-2.115 -1.611,-4.265c-0.353,-1.544 -1.039,-0.352 -1.583,-0.491c-1.049,-0.267 -2.152,-0.413 -3.263,-0.277c-5.615,0.686 -9.31,8.311 -10.174,1.244c-0.863,-7.068 2.381,-18.381 7.995,-19.067Z" style="fill-opacity:0.15;stroke:#000;stroke-opacity:0.22;stroke-width:4.17px;"/><path d="M502.571,283.608c-1.761,0.047 -4.651,-0.067 -4.937,-2.581c-0.235,-2.063 -2.178,-4.951 -2.892,-4.328c-2.543,2.217 -2.805,-7.472 -2.892,-10.769c-0.049,-1.849 0.515,-3.927 1.31,-5.29c0.48,-0.821 0.916,2.32 1.481,2.224c0.475,-0.08 1.078,-3.533 1.505,-2.829c0.489,0.807 0.913,2.212 1.198,4.399c0.204,1.571 1,0.449 1.529,0.639c1.019,0.365 2.103,0.615 3.222,0.586c5.655,-0.15 0.439,-0.324 0.628,6.794c0.188,7.117 5.502,11.005 -0.152,11.155Z" style="fill-opacity:0.15;stroke:#000;stroke-opacity:0.22;stroke-width:4.17px;"/><path d="M656.611,292.895c-2.789,0.022 -0.82,-8.098 -3.411,-8.535c-2.598,-0.438 -9.755,6.804 -12.071,6.009c-2.055,-0.705 1.226,-0.399 -0.545,-1.307c-1.778,-0.911 -8.606,-3.037 -10.038,-4.079c-0.722,-0.525 -1.397,-1.062 -2.02,-1.605c-3.157,-2.757 -4.991,-5.693 -5.01,-8.187c-0.028,-3.553 3.651,-3.587 9.604,-2.748c1.071,0.151 2.216,0.331 3.425,0.523c1.732,0.275 2.524,2.386 4.499,2.669c1.51,0.217 4.158,-1.388 5.785,-1.214c3.053,0.327 -4.509,1.973 -1.155,1.948c3.978,-0.031 18.589,-1.829 22.118,-2.314c1.449,-0.199 9.51,1.57 10.855,1.348c0.883,-0.146 -4.918,-2.281 -4.086,-2.425c3.849,-0.67 7.135,-1.281 9.631,-1.399c2.032,-0.097 1.821,3.031 2.685,3.82c0.539,0.492 2.548,-1.696 2.555,-0.711c0.02,2.68 -2.047,5.901 -5.603,8.885c-1.181,0.991 -12.401,-7.822 -13.889,-6.912c-1.043,0.638 7.718,11.028 6.542,11.602c-3.137,1.532 -7.738,0.238 -11.621,1.058c-2.938,0.621 -5.029,3.55 -8.25,3.574Z" style="fill-opacity:0.15;stroke:#000;stroke-opacity:0.22;stroke-width:4.17px;"/></g></g><path d="M709.327,202.816c-3.816,9.23 0.359,14.092 10.133,15.893l-26.156,125.357l-248.182,-51.783l28.911,-138.561l76.771,16.018c10.53,17.848 23.319,19.7 38.032,7.935l120.491,25.141Z" style="fill:none;stroke:#000;stroke-width:4.17px;"/><path id="left-side7" serif:id="left-side" d="M472.687,153.416l-28.911,138.561l-69.415,127.111l19.758,-133.286l78.568,-132.386Z" style="fill:#aba08a;"/><clipPath id="_clip19"><path d="M472.687,153.416l-28.911,138.561l-69.415,127.111l19.758,-133.286l78.568,-132.386Z"/></clipPath><g clip-path="url(#_clip19)"><path id="shadow14" serif:id="shadow" d="M443.696,291.436l-69.335,127.652l8.129,-63.694l75.252,-130.92l-14.046,66.962Z" style="fill-opacity:0.07;"/></g><path d="M472.687,153.416l-28.911,138.561l-69.415,127.111l19.758,-133.286l78.568,-132.386Z" style="fill:none;stroke:#000;stroke-width:4.17px;"/><g id="face7" serif:id="face"><path id="right-side7" serif:id="right-side" d="M692.418,345.916l-26.444,43.19c-12.1,2.27 -16.6,9.051 -12.733,20.797l-37.485,61.223l-239.966,-51.19l68.447,-125.803l248.181,51.783Z" style="fill:#e6dcc8;stroke:#000;stroke-width:4.17px;"/><path id="shadow15" serif:id="shadow" d="M532.377,310.162l-71.235,128.666l-84.972,-18.666l69.109,-127.786l87.098,17.786Z" style="fill-opacity:0.07;"/></g></g><g id="tofu10" serif:id="tofu"><path id="top9" serif:id="top" d="M1004.87,615.016c-6.677,7.427 -4.364,13.404 4.248,18.363l-66.488,109.443l-216.676,-131.634l73.492,-120.97l67.025,40.718c3.971,20.339 15.408,26.353 33.204,20.172l105.195,63.908Z" style="fill:#fffcf7;"/><clipPath id="_clip20"><path d="M1004.87,615.016c-6.677,7.427 -4.364,13.404 4.248,18.363l-66.488,109.443l-216.676,-131.634l73.492,-120.97l67.025,40.718c3.971,20.339 15.408,26.353 33.204,20.172l105.195,63.908Z"/></clipPath><g clip-path="url(#_clip20)"><g id="shadows10" serif:id="shadows"><path d="M831.188,563.673c6.703,1.489 17.572,4.456 16.855,11.63c-0.587,5.886 4.705,15.608 7.855,14.553c11.223,-3.758 5.276,23.112 3.245,32.255c-1.139,5.128 -4.764,10.32 -8.755,13.335c-2.406,1.817 -1.808,-7.217 -4.015,-7.473c-1.859,-0.215 -6.617,8.72 -7.729,6.394c-1.276,-2.669 -1.878,-6.918 -1.389,-13.191c0.351,-4.506 -3.468,-2.155 -5.337,-3.162c-3.597,-1.94 -7.527,-3.623 -11.787,-4.57c-21.531,-4.783 -43.396,11.069 -39.012,-8.667c4.385,-19.735 28.538,-45.887 50.069,-41.104Z" style="fill-opacity:0.15;stroke:#000;stroke-opacity:0.22;stroke-width:4.17px;"/><path d="M848.929,661.63c6.702,1.489 17.572,4.456 16.855,11.63c-0.588,5.886 4.704,15.607 7.855,14.553c11.222,-3.758 5.276,23.112 3.244,32.255c-1.139,5.127 -4.764,10.32 -8.755,13.335c-2.405,1.817 -1.808,-7.217 -4.015,-7.473c-1.858,-0.215 -6.617,8.719 -7.729,6.394c-1.275,-2.669 -1.877,-6.918 -1.389,-13.192c0.352,-4.505 -3.468,-2.154 -5.336,-3.161c-3.598,-1.94 -7.528,-3.623 -11.788,-4.57c-21.531,-4.783 -43.396,11.069 -39.011,-8.667c4.384,-19.735 28.538,-45.887 50.069,-41.104Z" style="fill-opacity:0.15;stroke:#000;stroke-opacity:0.22;stroke-width:4.17px;"/><path d="M941.947,606.484c1.719,0.382 4.495,1.193 4.163,3.702c-0.273,2.058 0.911,5.331 1.754,4.9c3.005,-1.534 0.909,7.929 0.194,11.149c-0.402,1.806 -1.453,3.685 -2.556,4.814c-0.664,0.68 -0.325,-2.473 -0.896,-2.517c-0.48,-0.037 -1.903,3.166 -2.146,2.379c-0.279,-0.901 -0.35,-2.367 -0.095,-4.558c0.182,-1.573 -0.862,-0.678 -1.329,-0.991c-0.9,-0.601 -1.891,-1.107 -2.984,-1.35c-5.522,-1.226 -11.549,4.728 -10.005,-2.222c1.544,-6.951 8.378,-16.533 13.9,-15.306Z" style="fill-opacity:0.15;stroke:#000;stroke-opacity:0.22;stroke-width:4.17px;"/><path d="M783.002,622.182c-1.674,-0.544 -4.361,-1.615 -3.792,-4.081c0.467,-2.023 -0.401,-5.393 -1.282,-5.045c-3.136,1.242 -0.151,-7.979 0.867,-11.117c0.571,-1.759 1.796,-3.53 3.001,-4.549c0.726,-0.614 0.089,2.492 0.653,2.591c0.475,0.082 2.196,-2.971 2.363,-2.165c0.192,0.924 0.123,2.39 -0.338,4.546c-0.332,1.549 0.793,0.758 1.228,1.113c0.839,0.684 1.777,1.282 2.842,1.627c5.38,1.746 0.522,-0.158 -1.676,6.614c-2.197,6.773 1.515,12.212 -3.866,10.466Z" style="fill-opacity:0.15;stroke:#000;stroke-opacity:0.22;stroke-width:4.17px;"/><path d="M925.114,682.34c-2.637,-0.91 1.929,-7.907 -0.367,-9.184c-2.303,-1.28 -11.467,3.159 -13.384,1.637c-1.702,-1.351 1.288,0.032 -0.078,-1.414c-1.372,-1.453 -7.099,-5.736 -8.102,-7.195c-0.505,-0.736 -0.962,-1.467 -1.368,-2.188c-2.056,-3.652 -2.806,-7.032 -1.992,-9.389c1.16,-3.358 4.64,-2.164 9.971,0.615c0.96,0.499 1.979,1.05 3.055,1.635c1.541,0.838 1.582,3.092 3.349,4.018c1.352,0.708 4.384,0.079 5.86,0.786c2.768,1.327 -4.909,0.355 -1.74,1.45c3.761,1.299 18.135,4.48 21.623,5.2c1.432,0.296 8.441,4.654 9.783,4.893c0.881,0.157 -3.875,-3.791 -3.043,-3.65c3.852,0.654 7.154,1.174 9.547,1.895c1.947,0.587 0.705,3.465 1.256,4.498c0.344,0.644 2.967,-0.749 2.645,0.182c-0.875,2.533 -3.898,4.88 -8.246,6.506c-1.445,0.541 -9.08,-11.512 -10.787,-11.15c-1.196,0.253 3.595,12.97 2.296,13.119c-3.469,0.398 -7.375,-2.358 -11.308,-2.88c-2.978,-0.395 -5.926,1.668 -8.97,0.616Z" style="fill-opacity:0.15;stroke:#000;stroke-opacity:0.22;stroke-width:4.17px;"/></g></g><path d="M1004.87,615.016c-6.677,7.427 -4.364,13.404 4.248,18.363l-66.488,109.443l-216.676,-131.634l73.492,-120.97l67.025,40.718c3.971,20.339 15.408,26.353 33.204,20.172l105.195,63.908Z" style="fill:none;stroke:#000;stroke-width:4.17px;"/><path id="left-side8" serif:id="left-side" d="M798.277,489.48l-73.491,120.971l-107.854,96.661l63.104,-119.053l118.241,-98.579Z" style="fill:#aba08a;"/><clipPath id="_clip21"><path d="M798.277,489.48l-73.491,120.971l-107.854,96.661l63.104,-119.053l118.241,-98.579Z"/></clipPath><g clip-path="url(#_clip21)"><path id="shadow16" serif:id="shadow" d="M724.89,609.914l-107.958,97.198l28.918,-57.331l114.626,-98.303l-35.586,58.436Z" style="fill-opacity:0.07;"/></g><path d="M798.277,489.48l-73.491,120.971l-107.854,96.661l63.104,-119.053l118.241,-98.579Z" style="fill:none;stroke:#000;stroke-width:4.17px;"/><g id="face8" serif:id="face"><path id="right-side8" serif:id="right-side" d="M941.175,744.271l-39.341,31.89c-12.163,-1.898 -18.668,2.992 -18.943,15.355l-55.767,45.205l-209.128,-128.333l106.504,-95.751l216.675,131.634Z" style="fill:#ffd887;stroke:#000;stroke-width:4.17px;"/><path id="shadow17" serif:id="shadow" d="M802.239,657.16l-110.088,97.519l-73.872,-45.951l107.79,-97.399l76.17,45.831Z" style="fill-opacity:0.07;"/></g></g></g></g><defs><linearGradient id="_Linear1" x1="0" y1="0" x2="1" y2="0" gradientUnits="userSpaceOnUse" gradientTransform="matrix(-9.67134,1041.67,-1041.67,-9.67134,509.799,0)"><stop offset="0" style="stop-color:#fff;stop-opacity:1"/><stop offset="0.42" style="stop-color:#c9cbf7;stop-opacity:1"/><stop offset="1" style="stop-color:#545ae6;stop-opacity:1"/></linearGradient></defs></svg>